<svg width="950" height="350" viewBox="0 0 950 350" fill="none" xmlns="http://www.w3.org/2000/svg">
<path d="M131.511 350C237.875 350 312.364 286.932 330.091 179.716C348.5 68.75 292.08 0.909081 185.545 0.909081H58.5568L0.602273 350H131.511ZM96.9091 278.068L131 72.8409H172.932C232.932 72.8409 259.523 97.5568 247.25 171.023C234.636 248.239 195.432 278.068 136.795 278.068H96.9091ZM440.777 200.682C445.72 170.852 466.345 153.125 492.595 153.125C519.357 153.125 531.63 170.511 526.857 199.489L501.8 350H585.152L613.107 183.125C622.993 123.977 593.505 84.7727 538.618 84.7727C499.755 84.7727 466.857 104.205 450.493 136.25H447.595L455.436 88.1818H376.175L332.539 350H415.891L440.777 200.682ZM747.955 350C854.319 350 928.807 286.932 946.535 179.716C964.944 68.75 908.523 0.909081 801.989 0.909081H675.001L617.046 350H747.955ZM713.353 278.068L747.444 72.8409H789.376C849.376 72.8409 875.966 97.5568 863.694 171.023C851.08 248.239 811.876 278.068 753.239 278.068H713.353Z" fill="url(#paint0_linear)"/>
<defs>
<linearGradient id="paint0_linear" x1="-3.99999" y1="466" x2="959.196" y2="-122.858" gradientUnits="userSpaceOnUse">
<stop stop-color="#0059BA"/>
<stop offset="1" stop-color="#3AA0E8"/>
</linearGradient>
</defs>
</svg>
